{"title":"The Blues Brothers 1980 DVDrip English Klam","uid":5839672,"size":2315502819,"categoryP":"video","categoryS":"movies","magnet":"?xt=urn:btih:50c5b2af461d7b8452e017255f0a54437cc4c58a&amp;dn=The+Blues+Brothers+1980+DVDrip+English+Klam&amp;tr=udp%3A%2F%2Ftracker.openbittorrent.com%3A80&amp;tr=udp%3A%2F%2Fopen.demonii.com%3A1337&amp;tr=udp%3A%2F%2Ftracker.coppersurfer.tk%3A6969&amp;tr=udp%3A%2F%2Fexodus.desync.com%3A6969","seeders":0,"leechers":0,"uploader":"Klambake","files":-1,"time":1284891175,"description":"With: John Belushi, Dan Aykroyd en James Brown\n\nAfter the release of Jake Blues from prison, he and brother Elwood go to visit the old home where they were raised by nuns. They learn the church stopped its support and will sell the place to the education authority, and the only way to keep the place open is if the $5000 tax on the property is paid within 11 days. The brothers want to help and decide to put their blues band back together and raise the the money by staging a big gig. As they set off on their &quot;mission from god&quot; they seem to make more enemies along the way. Will they manage to come up with the money in time?\n\nGeneral:\n\nComplete name                    : The Blues Brothers\\The Blues Brothers.avi\nFormat                           : AVI\nFormat/Info                      : Audio Video Interleave\nFile size                        : 2.16 GiB\nDuration                         : 2h 21mn\nOverall bit rate                 : 2 178 Kbps\n\nVideo:\n\nFormat                           : MPEG-4 Visual\nFormat profile                   : Simple@L3\nFormat settings, BVOP            : No\nFormat settings, QPel            : No\nFormat settings, GMC             : No warppoints\nFormat settings, Matrix          : Default (H.263)\nCodec ID                         : XVID\nCodec ID/Hint                    : XviD\nDuration                         : 2h 21mn\nBit rate                         : 1 783 Kbps\nWidth                            : 720 pixels\nHeight                           : 400 pixels\nDisplay aspect ratio             : 16:9\nFrame rate                       : 25.000 fps\nColor space                      : YUV\nChroma subsampling               : 4:2:0\nBit depth                        : 8 bits\nScan type                        : Progressive\nBits/(Pixel*Frame)               : 0.248\nStream size                      : 1.76 GiB (82%)\nWriting library                  : XviD 1.1.2 (UTC 2006-11-01)\n\nAudio:\n\nFormat                           : AC-3\nFormat/Info                      : Audio Coding 3\nMode extension                   : CM (complete main)\nCodec ID                         : 2000\nDuration                         : 2h 21mn\nBit rate mode                    : Constant\nBit rate                         : 384 Kbps\nChannel(s)                       : 6 channels\nChannel positions                : Front: L C R, Side: L R, LFE\nSampling rate                    : 48.0 KHz\nStream size                      : 389 MiB (18%)\nAlignment                        : Aligned on interleaves\nInterleave, duration             : 32 ms (0.80 video frame)\nInterleave, preload duration     : 32 ms\n","torrent":{"xt":"urn:btih:50c5b2af461d7b8452e017255f0a54437cc4c58a","amp;dn":"The+Blues+Brothers+1980+DVDrip+English+Klam","amp;tr":["udp%3A%2F%2Ftracker.openbittorrent.com%3A80","udp%3A%2F%2Fopen.demonii.com%3A1337","udp%3A%2F%2Ftracker.coppersurfer.tk%3A6969","udp%3A%2F%2Fexodus.desync.com%3A6969"],"infoHash":"50c5b2af461d7b8452e017255f0a54437cc4c58a","infoHashBuffer":{"type":"Buffer","data":[80,197,178,175,70,29,123,132,82,224,23,37,95,10,84,67,124,196,197,138]},"announce":[],"urlList":[]}}